<?xml version="1.0" encoding="UTF-8" standalone="no"?>
<!DOCTYPE svg PUBLIC "-//W3C//DTD SVG 1.1//EN" "http://www.w3.org/Graphics/SVG/1.1/DTD/svg11.dtd">
<svg width="100%" height="100%" viewBox="0 0 481 227" version="1.1" xmlns="http://www.w3.org/2000/svg" xmlns:xlink="http://www.w3.org/1999/xlink" xml:space="preserve" xmlns:serif="http://www.serif.com/" style="fill-rule:evenodd;clip-rule:evenodd;stroke-linejoin:round;stroke-miterlimit:2;">
    <g id="SvgjsG1106" transform="matrix(1.46738,0,0,1.46738,138.425,-37.7775)">
        <path d="M128.647,76.88L127.803,73.223C127.797,73.202 127.783,73.189 127.778,73.169C127.761,73.124 127.743,73.083 127.719,73.04C127.697,73.005 127.678,72.97 127.65,72.939C127.62,72.904 127.587,72.874 127.55,72.847C127.518,72.819 127.485,72.797 127.448,72.778C127.41,72.756 127.367,72.742 127.323,72.73C127.281,72.716 127.238,72.707 127.191,72.702C127.171,72.701 127.153,72.69 127.132,72.69L107.753,72.69L110.552,49.546C110.556,49.517 110.546,49.492 110.546,49.463C110.546,49.435 110.556,49.408 110.552,49.38L110.289,47.203C110.287,47.192 110.281,47.183 110.278,47.173C110.27,47.129 110.251,47.088 110.236,47.043C110.218,47 110.206,46.957 110.181,46.919C110.174,46.911 110.174,46.9 110.169,46.89L108.894,45.083C108.887,45.075 108.878,45.071 108.872,45.062C108.844,45.025 108.805,44.995 108.768,44.965C108.735,44.936 108.705,44.907 108.669,44.885C108.658,44.88 108.653,44.87 108.642,44.865L106.695,43.877C106.6,43.829 106.497,43.811 106.397,43.81C106.386,43.809 106.377,43.805 106.368,43.803L104.165,43.857C104.156,43.857 104.147,43.862 104.138,43.864C104.092,43.866 104.049,43.882 104.002,43.894C103.958,43.906 103.914,43.916 103.873,43.935C103.863,43.939 103.852,43.939 103.844,43.945L101.924,45.027C101.922,45.028 101.922,45.029 101.919,45.031C101.917,45.031 101.916,45.031 101.915,45.032L87.035,53.721C87.006,53.738 86.991,53.763 86.965,53.783C86.93,53.812 86.894,53.838 86.865,53.873C86.836,53.905 86.814,53.944 86.792,53.982C86.77,54.019 86.751,54.057 86.736,54.098C86.722,54.139 86.717,54.181 86.711,54.224C86.706,54.268 86.7,54.311 86.703,54.356C86.706,54.401 86.717,54.442 86.729,54.488C86.737,54.518 86.735,54.549 86.747,54.578L90.022,62.413L90.023,62.413C90.07,62.527 90.155,62.615 90.253,62.689C90.275,62.707 90.295,62.721 90.32,62.735C90.421,62.794 90.531,62.835 90.656,62.835L95.034,62.835L95.034,82.713C95.034,82.748 95.049,82.779 95.054,82.813C95.063,82.864 95.065,82.913 95.083,82.961C95.104,83.011 95.137,83.052 95.167,83.097C95.186,83.125 95.195,83.155 95.218,83.18L96.506,84.569C96.515,84.58 96.531,84.584 96.54,84.595C96.585,84.638 96.636,84.673 96.691,84.701C96.715,84.713 96.734,84.73 96.759,84.738C96.838,84.768 96.921,84.789 97.007,84.789L97.01,84.789C97.061,84.789 97.11,84.783 97.161,84.771L128.128,77.699L128.131,77.699C128.198,77.684 128.252,77.651 128.308,77.618C128.331,77.605 128.359,77.6 128.378,77.587C128.423,77.555 128.456,77.508 128.49,77.467C128.512,77.441 128.541,77.423 128.558,77.394C128.595,77.337 128.614,77.271 128.633,77.204C128.637,77.184 128.65,77.169 128.654,77.149C128.669,77.065 128.668,76.973 128.647,76.88Z" style="fill:rgb(211,47,47);fill-rule:nonzero;"/>
        <path d="M88.065,43.166C88.15,43.166 88.235,43.15 88.321,43.117L88.33,43.113C88.332,43.113 88.334,43.111 88.336,43.11L100.287,38.337C100.289,38.337 100.29,38.335 100.292,38.334C100.36,38.305 100.418,38.263 100.474,38.216C100.488,38.204 100.504,38.198 100.517,38.187C100.547,38.157 100.565,38.116 100.59,38.08C100.616,38.043 100.647,38.01 100.665,37.97C100.673,37.951 100.672,37.929 100.679,37.91C100.701,37.844 100.719,37.777 100.719,37.708C100.719,37.705 100.72,37.704 100.72,37.701L100.72,37.119C100.72,37.084 100.705,37.054 100.699,37.021C100.691,36.97 100.688,36.92 100.671,36.872C100.654,36.829 100.627,36.795 100.602,36.758C100.579,36.721 100.561,36.682 100.529,36.651C100.493,36.611 100.444,36.583 100.399,36.554C100.373,36.538 100.355,36.513 100.325,36.5L100.298,36.487L77.592,25.807C77.585,25.804 77.577,25.804 77.57,25.801C77.521,25.779 77.47,25.773 77.418,25.764C77.382,25.759 77.346,25.745 77.311,25.745C77.267,25.744 77.224,25.757 77.177,25.766C77.135,25.774 77.091,25.778 77.048,25.794C77.04,25.797 77.031,25.796 77.022,25.8L74.544,26.889C74.503,26.908 74.471,26.94 74.435,26.966C74.405,26.988 74.371,26.997 74.343,27.025L57.546,43.257C57.544,43.258 57.544,43.259 57.543,43.261C57.485,43.317 57.441,43.386 57.407,43.46C57.403,43.468 57.395,43.475 57.392,43.483C57.385,43.5 57.386,43.519 57.381,43.535C57.358,43.604 57.34,43.674 57.338,43.746C57.338,43.747 57.337,43.748 57.337,43.751L57.337,44.877C57.337,45.256 57.645,45.564 58.024,45.564L63.614,45.564C63.748,45.564 63.866,45.514 63.971,45.447C63.984,45.439 64.001,45.443 64.015,45.433L76.322,36.519L85.959,43.048C85.972,43.056 85.988,43.054 85.999,43.06C86.1,43.122 86.213,43.165 86.342,43.166L88.065,43.166Z" style="fill:rgb(211,47,47);fill-rule:nonzero;"/>
        <path d="M134.922,38.434C134.92,38.421 134.924,38.407 134.92,38.394L133.681,33.77C133.678,33.756 133.667,33.746 133.663,33.734C133.648,33.69 133.625,33.649 133.6,33.608C133.578,33.571 133.557,33.531 133.529,33.499C133.518,33.487 133.513,33.472 133.502,33.462L130.111,30.07C130.101,30.059 130.086,30.057 130.078,30.047C130.043,30.017 130.002,29.994 129.961,29.97C129.923,29.947 129.884,29.925 129.842,29.91C129.828,29.906 129.817,29.895 129.805,29.891L125.178,28.652C125.159,28.648 125.144,28.652 125.126,28.649C125.084,28.641 125.041,28.644 124.996,28.644C124.956,28.644 124.916,28.641 124.878,28.649C124.859,28.652 124.841,28.648 124.821,28.652L120.193,29.891C120.179,29.895 120.168,29.906 120.155,29.91C120.113,29.925 120.074,29.947 120.036,29.97C119.995,29.994 119.954,30.016 119.919,30.047C119.91,30.057 119.895,30.059 119.886,30.07L116.493,33.462C116.481,33.474 116.477,33.491 116.466,33.503C116.438,33.532 116.419,33.568 116.399,33.604C116.372,33.646 116.348,33.689 116.333,33.734C116.327,33.748 116.318,33.757 116.313,33.77L115.075,38.394C115.072,38.408 115.075,38.422 115.072,38.434C115.064,38.48 115.064,38.525 115.064,38.574C115.064,38.62 115.064,38.664 115.072,38.709C115.075,38.723 115.072,38.736 115.075,38.75L116.313,43.364C116.316,43.373 116.327,43.378 116.33,43.387C116.361,43.49 116.411,43.589 116.492,43.671L119.885,47.059C119.895,47.07 119.908,47.073 119.918,47.082C119.952,47.111 119.991,47.133 120.031,47.156C120.072,47.181 120.112,47.205 120.157,47.22C120.171,47.224 120.179,47.233 120.191,47.237L124.82,48.48C124.879,48.497 124.938,48.505 124.997,48.505L125,48.505C125.059,48.505 125.118,48.497 125.177,48.48L129.803,47.237C129.817,47.233 129.825,47.224 129.838,47.22C129.883,47.205 129.923,47.181 129.964,47.156C130.004,47.133 130.042,47.113 130.076,47.082C130.087,47.073 130.101,47.07 130.109,47.059L133.501,43.671C133.583,43.589 133.632,43.49 133.662,43.389C133.666,43.378 133.675,43.373 133.678,43.364L134.917,38.75C134.922,38.735 134.917,38.721 134.92,38.709C134.929,38.665 134.928,38.621 134.929,38.574C134.932,38.526 134.933,38.48 134.922,38.434Z" style="fill:rgb(211,47,47);fill-rule:nonzero;"/>
        <path d="M83.613,69.885C83.609,69.838 83.6,69.795 83.586,69.75C83.572,69.708 83.557,69.668 83.537,69.629C83.516,69.591 83.494,69.558 83.466,69.525C83.438,69.489 83.407,69.458 83.372,69.429C83.342,69.401 83.306,69.381 83.27,69.36C83.229,69.335 83.185,69.319 83.137,69.304C83.116,69.297 83.101,69.282 83.078,69.278C83.053,69.272 83.03,69.279 83.005,69.276C82.982,69.274 82.963,69.263 82.939,69.263L81.631,69.263C81.617,69.263 81.606,69.27 81.595,69.271C81.545,69.274 81.5,69.286 81.452,69.3C81.407,69.312 81.366,69.323 81.326,69.342C81.312,69.349 81.298,69.349 81.287,69.356L71.051,75.272L62.306,63.821C62.269,63.773 62.221,63.74 62.175,63.706C62.006,63.572 61.793,63.519 61.59,63.572C61.503,63.594 61.419,63.634 61.344,63.692C61.344,63.692 61.344,63.693 61.342,63.693L42.617,77.966L35.191,77.966C34.812,77.966 34.504,78.273 34.504,78.652L34.504,82.799L4.222,103.428C4.205,103.44 4.195,103.458 4.18,103.472C4.143,103.502 4.111,103.535 4.081,103.572C4.054,103.605 4.03,103.639 4.01,103.678C3.989,103.715 3.975,103.755 3.963,103.796C3.949,103.841 3.94,103.885 3.934,103.935C3.933,103.955 3.922,103.973 3.922,103.995L3.922,110.193C3.922,110.204 3.927,110.214 3.927,110.224C3.929,110.269 3.944,110.311 3.955,110.358C3.966,110.405 3.975,110.447 3.994,110.49C3.999,110.5 3.997,110.511 4.003,110.519C4.011,110.535 4.029,110.541 4.038,110.556C4.088,110.633 4.148,110.696 4.222,110.747C4.247,110.765 4.268,110.781 4.294,110.795C4.389,110.844 4.493,110.88 4.607,110.88C4.607,110.88 4.608,110.879 4.61,110.879C4.718,110.879 4.817,110.848 4.908,110.803C4.916,110.799 4.925,110.8 4.934,110.796L48.068,87.484L75.197,97.672L75.224,97.681C75.303,97.711 75.384,97.725 75.465,97.725L77.335,97.725C77.423,97.725 77.506,97.706 77.585,97.676C77.613,97.665 77.635,97.647 77.661,97.633C77.709,97.607 77.754,97.58 77.795,97.544C77.82,97.522 77.838,97.497 77.859,97.473C77.89,97.434 77.919,97.393 77.944,97.346C77.96,97.316 77.971,97.283 77.981,97.25C77.989,97.225 78.005,97.205 78.01,97.179L83.612,70.088C83.618,70.063 83.611,70.041 83.612,70.017C83.615,69.992 83.627,69.973 83.627,69.948C83.626,69.927 83.616,69.907 83.613,69.885Z" style="fill:rgb(211,47,47);fill-rule:nonzero;"/>
    </g>
    <g id="SvgjsG1107" transform="matrix(3.81846,0,0,3.81846,-2.62165,121.064)">
        <path d="M1.675,26.502L1.675,8.239L0.687,8.239L0.687,27.49L5.493,27.463L5.493,19.608L13.017,10.079L11.754,10.079L4.476,19.251L4.476,26.502L1.675,26.502ZM4.449,14.61L5.465,13.347L5.465,8.239L2.554,8.239L2.554,17.054L3.543,15.791L3.543,9.255L4.449,9.255L4.449,14.61ZM16.78,8.239L10.711,8.239L2.554,18.702L2.554,25.788L3.543,25.788L3.543,19.032L11.177,9.255L14.748,9.255L7.003,19.114L11.946,25.788L13.182,25.788L8.266,19.114L16.78,8.239ZM14.83,26.502L11.342,26.502L6.426,19.856L6.426,21.503L10.848,27.463L16.807,27.463L10.079,18.428L9.447,19.224L14.83,26.502ZM29.111,8.239L30.099,8.239L30.099,26.474L32.791,26.474L32.791,19.608L39.217,19.608L39.217,18.702L32.818,18.702L32.818,17.714L40.206,17.714L40.206,20.597L33.779,20.597L33.779,27.463L29.111,27.463L29.111,8.239ZM30.951,8.239L41.551,8.239L41.551,12.908L34.686,12.908L34.686,11.919L40.563,11.919L40.563,9.228L31.912,9.228L31.912,25.705L30.951,25.705L30.951,8.239ZM32.791,10.024L39.711,10.024L39.711,11.013L33.779,11.013L33.779,15.874L40.206,15.874L40.206,16.89L32.791,16.89L32.791,10.024ZM44.05,8.239L46.934,8.239L46.934,25.623L45.945,25.623L45.945,9.228L45.039,9.228L45.039,26.474L47.813,26.474L47.813,8.239L48.801,8.239L48.801,27.463L44.05,27.463L44.05,8.239ZM56.931,11.809L63.494,11.809L63.494,9.2L51.822,9.2L51.822,10.051L62.56,10.051L62.56,11.04L50.834,11.04L50.834,8.211L64.483,8.211L64.483,12.798L57.919,12.798L57.919,25.65L56.931,25.65L56.931,11.809ZM55.09,12.798L50.834,12.798L50.834,11.809L56.079,11.809L56.079,26.447L58.825,26.447L58.825,13.649L59.814,13.649L59.814,27.463L55.09,27.463L55.09,12.798ZM79.175,19.636L67.943,8.239L66.57,8.239L80.164,22.053L80.164,10.161L79.175,10.161L79.175,19.636ZM78.269,17.439L78.269,9.2L81.07,9.2L81.07,26.474L80.603,26.474L80.494,26.364L67.916,13.622L67.916,27.463L70.799,27.463L70.799,19.361L69.783,18.318L69.783,26.474L68.904,26.474L68.904,16.038L80.301,27.463L82.059,27.463L82.059,8.239L77.28,8.239L77.28,16.368L78.269,17.439ZM67.009,27.463L67.009,11.397L80.164,24.744L80.164,23.289L66.048,9.035L66.048,27.463L67.009,27.463ZM83.954,8.294L84.943,8.294L84.943,26.474L95.461,26.474L95.461,23.728L87.716,23.728L87.716,21.091L88.705,21.091L88.705,22.739L96.45,22.739L96.45,27.463L83.954,27.463L83.954,8.294ZM85.821,8.294L96.312,8.294L96.312,12.99L89.721,12.99L89.721,12.001L95.324,12.001L95.324,9.282L86.81,9.282L86.81,17.219L93.209,17.219L93.209,18.208L85.821,18.208L85.821,8.294ZM85.821,19.087L94.17,19.087L94.17,16.34L87.716,16.34L87.716,10.106L94.362,10.106L94.362,11.095L88.705,11.095L88.705,15.352L95.159,15.352L95.159,20.075L86.81,20.075L86.81,24.634L94.5,24.634L94.5,25.623L85.821,25.623L85.821,19.087ZM101.558,22.931C102.903,23.536 104.084,23.838 105.073,23.838C105.567,23.838 105.869,23.81 106.007,23.728C106.638,23.563 107.078,23.206 107.352,22.657L107.38,22.602C107.517,22.355 107.572,22.053 107.572,21.668C107.572,21.476 107.517,21.256 107.407,20.982L107.352,20.872C106.995,20.13 106.199,19.636 104.743,19.169L104.469,19.087L104.386,19.059C102.162,18.4 100.734,17.357 100.047,15.901C99.773,15.352 99.635,14.748 99.635,14.088C99.635,13.402 99.773,12.743 100.047,12.056L100.102,11.946C100.734,10.683 101.75,9.859 103.096,9.447C104.057,9.31 104.606,9.228 104.743,9.228C106.611,9.228 108.78,9.996 111.225,11.507L111.746,10.656C109.082,9.035 106.776,8.239 104.771,8.239C103.974,8.239 103.315,8.321 102.848,8.513C101.228,8.953 100.02,9.942 99.223,11.507L99.141,11.699C98.811,12.496 98.647,13.292 98.647,14.088C98.647,14.94 98.811,15.681 99.141,16.34C99.992,18.043 101.64,19.251 104.112,19.993L104.441,20.103C105.567,20.46 106.226,20.844 106.473,21.284L106.501,21.339C106.556,21.421 106.583,21.531 106.583,21.668C106.583,21.915 106.556,22.08 106.473,22.217C106.281,22.657 105.814,22.877 105.073,22.877C103.892,22.877 102.189,22.272 100.871,21.421L100.459,21.174L98.042,25.074L98.454,25.321C100.404,26.639 102.986,27.463 105.073,27.463C105.759,27.463 106.391,27.38 106.968,27.216C108.588,26.749 109.797,25.733 110.593,24.195L110.703,24.003C111.032,23.151 111.197,22.355 111.197,21.613C111.197,20.954 110.977,20.13 110.565,19.114C109.824,17.631 108.259,16.505 105.814,15.736L105.43,15.626C104.661,15.379 104.139,15.132 103.892,14.94C103.562,14.665 103.37,14.473 103.288,14.363L103.233,14.061C103.233,13.786 103.288,13.539 103.425,13.347C103.645,12.935 103.865,12.825 104.743,12.825C105.924,12.825 107.627,13.429 108.945,14.281L109.357,14.528L110.84,12.166L110.401,11.919C108.725,10.82 106.446,10.051 104.771,10.051C104.029,10.051 103.562,10.106 103.315,10.244C102.189,10.573 101.338,11.287 100.789,12.358C100.542,12.825 100.432,13.374 100.432,14.061C100.432,14.583 100.542,15.077 100.761,15.544C101.338,16.78 102.629,17.686 104.633,18.29L104.991,18.4L105.732,18.675C106.144,18.84 106.583,19.059 107.078,19.334C107.956,19.856 108.396,20.597 108.396,21.586C108.396,22.135 108.259,22.657 108.011,23.124C107.435,24.14 106.446,24.662 105.073,24.662C104.139,24.662 102.821,24.305 101.118,23.618L100.651,24.414L100.624,24.469C102.189,25.266 103.672,25.65 105.1,25.65C105.897,25.65 106.638,25.486 107.297,25.156C108.588,24.524 109.385,23.206 109.385,21.558C109.385,18.949 107.38,18.18 105.265,17.439L104.908,17.329C103.178,16.807 102.107,16.093 101.667,15.132C101.503,14.802 101.42,14.445 101.42,14.034C101.42,13.512 101.503,13.1 101.695,12.743C102.134,11.946 102.766,11.425 103.59,11.177L104.688,11.04C106.144,11.04 107.737,11.534 109.467,12.496L109.028,13.182C107.242,12.303 105.814,11.864 104.771,11.864C104.249,11.864 103.947,11.891 103.81,11.974C103.205,12.139 102.766,12.496 102.464,13.072L102.436,13.127C102.299,13.374 102.244,13.704 102.244,14.116C102.244,14.418 102.299,14.638 102.382,14.775C102.739,15.517 103.672,16.121 105.155,16.56L105.512,16.67L106.199,16.89C106.281,16.917 106.721,17.109 107.517,17.494C108.588,18.098 109.357,18.867 109.797,19.773C110.071,20.323 110.208,20.927 110.208,21.586C110.208,22.382 110.071,23.069 109.769,23.646L109.714,23.755C109.082,25.019 108.066,25.843 106.721,26.254C105.759,26.392 105.21,26.474 105.073,26.474C103.672,26.474 101.86,25.952 100.185,25.156L99.416,24.744L100.789,22.52L101.558,22.931ZM116.36,22.931C117.706,23.536 118.887,23.838 119.875,23.838C120.37,23.838 120.672,23.81 120.809,23.728C121.441,23.563 121.88,23.206 122.155,22.657L122.182,22.602C122.32,22.355 122.374,22.053 122.374,21.668C122.374,21.476 122.32,21.256 122.21,20.982L122.155,20.872C121.798,20.13 121.001,19.636 119.546,19.169L119.271,19.087L119.189,19.059C116.964,18.4 115.536,17.357 114.85,15.901C114.575,15.352 114.438,14.748 114.438,14.088C114.438,13.402 114.575,12.743 114.85,12.056L114.905,11.946C115.536,10.683 116.552,9.859 117.898,9.447C118.859,9.31 119.409,9.228 119.546,9.228C121.413,9.228 123.583,9.996 126.027,11.507L126.549,10.656C123.885,9.035 121.578,8.239 119.573,8.239C118.777,8.239 118.118,8.321 117.651,8.513C116.031,8.953 114.822,9.942 114.026,11.507L113.943,11.699C113.614,12.496 113.449,13.292 113.449,14.088C113.449,14.94 113.614,15.681 113.943,16.34C114.795,18.043 116.443,19.251 118.914,19.993L119.244,20.103C120.37,20.46 121.029,20.844 121.276,21.284L121.303,21.339C121.358,21.421 121.386,21.531 121.386,21.668C121.386,21.915 121.358,22.08 121.276,22.217C121.084,22.657 120.617,22.877 119.875,22.877C118.694,22.877 116.992,22.272 115.674,21.421L115.262,21.174L112.845,25.074L113.257,25.321C115.207,26.639 117.788,27.463 119.875,27.463C120.562,27.463 121.194,27.38 121.77,27.216C123.391,26.749 124.599,25.733 125.395,24.195L125.505,24.003C125.835,23.151 126,22.355 126,21.613C126,20.954 125.78,20.13 125.368,19.114C124.626,17.631 123.061,16.505 120.617,15.736L120.232,15.626C119.463,15.379 118.942,15.132 118.694,14.94C118.365,14.665 118.173,14.473 118.09,14.363L118.035,14.061C118.035,13.786 118.09,13.539 118.228,13.347C118.447,12.935 118.667,12.825 119.546,12.825C120.727,12.825 122.429,13.429 123.748,14.281L124.16,14.528L125.643,12.166L125.203,11.919C123.528,10.82 121.249,10.051 119.573,10.051C118.832,10.051 118.365,10.106 118.118,10.244C116.992,10.573 116.14,11.287 115.591,12.358C115.344,12.825 115.234,13.374 115.234,14.061C115.234,14.583 115.344,15.077 115.564,15.544C116.14,16.78 117.431,17.686 119.436,18.29L119.793,18.4L120.534,18.675C120.946,18.84 121.386,19.059 121.88,19.334C122.759,19.856 123.198,20.597 123.198,21.586C123.198,22.135 123.061,22.657 122.814,23.124C122.237,24.14 121.249,24.662 119.875,24.662C118.942,24.662 117.623,24.305 115.921,23.618L115.454,24.414L115.426,24.469C116.992,25.266 118.475,25.65 119.903,25.65C120.699,25.65 121.441,25.486 122.1,25.156C123.391,24.524 124.187,23.206 124.187,21.558C124.187,18.949 122.182,18.18 120.068,17.439L119.711,17.329C117.98,16.807 116.909,16.093 116.47,15.132C116.305,14.802 116.223,14.445 116.223,14.034C116.223,13.512 116.305,13.1 116.497,12.743C116.937,11.946 117.568,11.425 118.392,11.177L119.491,11.04C120.946,11.04 122.539,11.534 124.269,12.496L123.83,13.182C122.045,12.303 120.617,11.864 119.573,11.864C119.051,11.864 118.749,11.891 118.612,11.974C118.008,12.139 117.568,12.496 117.266,13.072L117.239,13.127C117.102,13.374 117.047,13.704 117.047,14.116C117.047,14.418 117.102,14.638 117.184,14.775C117.541,15.517 118.475,16.121 119.958,16.56L120.315,16.67L121.001,16.89C121.084,16.917 121.523,17.109 122.32,17.494C123.391,18.098 124.16,18.867 124.599,19.773C124.874,20.323 125.011,20.927 125.011,21.586C125.011,22.382 124.874,23.069 124.572,23.646L124.517,23.755C123.885,25.019 122.869,25.843 121.523,26.254C120.562,26.392 120.013,26.474 119.875,26.474C118.475,26.474 116.662,25.952 114.987,25.156L114.218,24.744L115.591,22.52L116.36,22.931Z" style="fill:white;fill-rule:nonzero;"/>
    </g>
</svg>
